<?xml version="1.0" encoding="iso-8859-1"?>
<!-- Generator: Adobe Illustrator 16.0.0, SVG Export Plug-In . SVG Version: 6.00 Build 0)  -->
<!DOCTYPE svg PUBLIC "-//W3C//DTD SVG 1.1//EN" "http://www.w3.org/Graphics/SVG/1.1/DTD/svg11.dtd">
<svg xmlns="http://www.w3.org/2000/svg" xmlns:xlink="http://www.w3.org/1999/xlink" version="1.1" id="Capa_1" x="0px" y="0px" width="512px" height="512px" viewBox="0 0 486.022 486.022" style="enable-background:new 0 0 486.022 486.022;" xml:space="preserve">
<g>
	<g>
		<path d="M26.721,318.458c-2.182-5.643-3.424-11.745-3.424-18.146c0-27.867,22.674-50.537,50.542-50.537    c27.868,0,50.534,22.67,50.534,50.529c0,6.869-1.389,13.421-3.888,19.412l256.323-14.539c-0.152-1.599-0.244-3.226-0.244-4.865    c0-27.867,22.678-50.537,50.545-50.537c27.575,0,50.037,22.217,50.49,49.692l5.273-0.297c10.468-37.95-8.508-50.378-8.508-50.378    c5.238-42.528-21.588-51.684-21.588-51.684c-7.851-17.663-30.749-43.176-30.749-43.176c26.173-17.663-18.967-7.199-18.967-7.199    c-59.53-7.851-194.95-1.962-210.65,5.889c-15.701,7.851-62.803,51.026-62.803,51.026C-2.54,213.463,7.926,261.22,7.926,261.22    c-14.389,2.612-5.887,24.861-0.194,45.829C9.245,312.639,16.67,316.202,26.721,318.458z" fill="#1c2833"/>
		<path d="M73.83,257.625c-23.574,0-42.691,19.104-42.691,42.687c0,7.149,1.783,13.882,4.885,19.801    c7.153,13.594,21.385,22.883,37.806,22.883c16.382,0,30.593-9.237,37.746-22.782c3.14-5.943,4.937-12.72,4.937-19.909    C116.521,276.729,97.412,257.625,73.83,257.625z" fill="#1c2833"/>
		<path d="M427.101,257.625c-23.575,0-42.695,19.104-42.695,42.687c0,1.495,0.076,2.966,0.232,4.429    c2.221,21.491,20.382,38.255,42.463,38.255c23.584,0,42.688-19.111,42.688-42.691c0-0.132-0.016-0.269-0.024-0.4    C469.556,276.52,450.536,257.625,427.101,257.625z" fill="#1c2833"/>
	</g>
</g>
<g>
</g>
<g>
</g>
<g>
</g>
<g>
</g>
<g>
</g>
<g>
</g>
<g>
</g>
<g>
</g>
<g>
</g>
<g>
</g>
<g>
</g>
<g>
</g>
<g>
</g>
<g>
</g>
<g>
</g>
</svg>
