<?xml version="1.0" encoding="iso-8859-1"?>
<!-- Generator: Adobe Illustrator 16.0.0, SVG Export Plug-In . SVG Version: 6.00 Build 0)  -->
<!DOCTYPE svg PUBLIC "-//W3C//DTD SVG 1.1//EN" "http://www.w3.org/Graphics/SVG/1.1/DTD/svg11.dtd">
<svg xmlns="http://www.w3.org/2000/svg" xmlns:xlink="http://www.w3.org/1999/xlink" version="1.1" id="Capa_1" x="0px" y="0px" width="512px" height="512px" viewBox="0 0 99.084 99.084" style="enable-background:new 0 0 99.084 99.084;" xml:space="preserve">
<g>
	<g>
		<path d="M25.263,56.561c0-4.016-3.253-7.267-7.268-7.267c-4.013,0-7.267,3.251-7.267,7.267c0,0.312,0.026,0.614,0.064,0.913    c0.45,3.581,3.501,6.354,7.202,6.354c3.804,0,6.919-2.924,7.237-6.647C25.248,56.975,25.263,56.77,25.263,56.561z M14.355,53.822    l1.483,1.481c-0.116,0.199-0.204,0.412-0.262,0.641h-2.09C13.594,55.152,13.898,54.431,14.355,53.822z M13.48,57.202h2.104    c0.06,0.224,0.146,0.438,0.263,0.629l-1.484,1.487C13.903,58.712,13.589,57.99,13.48,57.202z M17.367,61.076    c-0.786-0.109-1.504-0.418-2.108-0.875l1.477-1.479c0.194,0.114,0.408,0.196,0.632,0.255L17.367,61.076L17.367,61.076z     M17.367,54.143c-0.229,0.06-0.444,0.15-0.644,0.269l-1.479-1.479c0.607-0.462,1.33-0.769,2.123-0.879V54.143z M18.623,52.052    c0.794,0.11,1.517,0.417,2.124,0.879l-1.479,1.479c-0.2-0.117-0.414-0.209-0.645-0.269V52.052z M18.623,61.074v-2.098    c0.226-0.059,0.438-0.143,0.632-0.256l1.479,1.479C20.129,60.656,19.411,60.964,18.623,61.074z M21.635,59.323l-1.49-1.492    c0.115-0.195,0.211-0.403,0.271-0.629h2.088C22.393,57.99,22.095,58.717,21.635,59.323z M20.416,55.945    c-0.059-0.229-0.146-0.44-0.263-0.641l1.483-1.482c0.459,0.608,0.763,1.329,0.87,2.122L20.416,55.945L20.416,55.945z" fill="#1c2833"/>
		<path d="M77.118,49.294c-4.013,0-7.266,3.251-7.266,7.267c0,0.312,0.025,0.614,0.062,0.913c0.45,3.581,3.502,6.354,7.202,6.354    c3.806,0,6.92-2.924,7.237-6.647c0.016-0.205,0.031-0.41,0.031-0.619C84.388,52.545,81.134,49.294,77.118,49.294z M73.479,53.822    l1.483,1.481c-0.116,0.199-0.204,0.412-0.264,0.641H72.61C72.718,55.152,73.021,54.431,73.479,53.822z M72.604,57.202h2.104    c0.062,0.224,0.146,0.438,0.264,0.629l-1.485,1.488C73.026,58.712,72.713,57.99,72.604,57.202z M76.49,61.076    c-0.786-0.109-1.503-0.418-2.107-0.875l1.478-1.479c0.194,0.114,0.407,0.196,0.631,0.255L76.49,61.076L76.49,61.076z     M76.49,54.143c-0.229,0.06-0.442,0.15-0.643,0.269l-1.479-1.479c0.606-0.462,1.33-0.769,2.122-0.879V54.143z M77.746,52.052    c0.795,0.11,1.518,0.417,2.125,0.879l-1.479,1.479c-0.2-0.117-0.415-0.209-0.646-0.269V52.052z M77.746,61.074v-2.098    c0.227-0.059,0.438-0.143,0.634-0.256l1.479,1.479C79.253,60.656,78.535,60.964,77.746,61.074z M80.76,59.323l-1.491-1.492    c0.115-0.195,0.212-0.403,0.271-0.629h2.089C81.517,57.99,81.219,58.717,80.76,59.323z M79.539,55.945    c-0.058-0.229-0.146-0.44-0.262-0.641l1.482-1.481c0.458,0.608,0.762,1.329,0.869,2.122H79.539z" fill="#1c2833"/>
		<path d="M97.562,47.933c-8.3-7.166-18.199-7.523-18.199-7.523l-5.721-1.796c-0.812-0.255-1.676,0.194-1.936,1.004l-0.454,1.426    l-10.524,0.787l-0.216-2.097c-0.067-0.655-0.628-1.148-1.287-1.13l-0.697,0.019c-0.682,0.019-1.226,0.576-1.226,1.259v2.367    l-15.8,0.719c0.347-1.16-0.412-1.889-0.412-1.889l6.547-3.097c0.4-0.189,0.658-0.588,0.669-1.03    c0.009-0.442-0.232-0.853-0.624-1.058l-0.766-0.404c-0.519-0.273-1.131-0.309-1.678-0.099c-2.412,0.925-9.514,3.716-16.767,7.192    c-10.716,0.752-22.623,2.835-25.487,4.68c-2.865,1.846-3.141,4.128-2.929,6.496c0.309,3.435,2.904,6.225,6.307,6.778l4.693,0.764    l0.148-0.001c-0.749-1.069-1.258-2.325-1.43-3.694c-0.043-0.342-0.072-0.688-0.072-1.043c0-4.571,3.719-8.291,8.292-8.291    c4.573,0,8.294,3.72,8.294,8.291c0,0.235-0.017,0.47-0.034,0.699c-0.123,1.438-0.624,2.768-1.391,3.901l44.468-0.447l0.61-0.022    c-0.536-0.93-0.903-1.971-1.044-3.088c-0.043-0.342-0.072-0.688-0.072-1.043c0-4.571,3.721-8.291,8.292-8.291    c4.574,0,8.294,3.72,8.294,8.291c0,0.235-0.016,0.47-0.033,0.699c-0.088,1.017-0.363,1.978-0.786,2.854l10.229-0.402l0.685-0.754    c1.74-1.915,2.942-4.257,3.481-6.788C99.322,50.606,98.773,48.978,97.562,47.933z" fill="#1c2833"/>
	</g>
</g>
<g>
</g>
<g>
</g>
<g>
</g>
<g>
</g>
<g>
</g>
<g>
</g>
<g>
</g>
<g>
</g>
<g>
</g>
<g>
</g>
<g>
</g>
<g>
</g>
<g>
</g>
<g>
</g>
<g>
</g>
</svg>
