<?xml version="1.0" encoding="utf-8"?>
<!-- Generator: Adobe Illustrator 13.0.0, SVG Export Plug-In . SVG Version: 6.00 Build 14948)  -->
<!DOCTYPE svg PUBLIC "-//W3C//DTD SVG 1.1//EN" "http://www.w3.org/Graphics/SVG/1.1/DTD/svg11.dtd">
<svg version="1.1" id="Capa_1" xmlns="http://www.w3.org/2000/svg" xmlns:xlink="http://www.w3.org/1999/xlink" x="0px" y="0px"
	 width="512px" height="512px" viewBox="0 0 512 512" enable-background="new 0 0 512 512" xml:space="preserve">
<g>
	<g>
		<g>
			<path fill="#1C2833" d="M504.288,245.726c-0.719-8.667-1.524-18.475-3.099-26.938c-1.094-5.919-3.497-13.801-11.625-13.801
				c-0.813,0-1.629,0.08-2.435,0.164c-0.502,0.048-1.005,0.115-1.828,0.131c-0.017,0-0.28-0.256-0.615-1.229
				c-2.387-6.835-12.398-15.337-25.236-25.735c-3.162-2.552-6.947-5.625-8.561-7.21c0.593-4.095,0.505-9.125-2.347-12.591
				c-1.324-1.617-3.815-3.549-8.111-3.549c-0.631,0-1.302,0.039-2.794,0.171c-3.1,0-9.31-1.273-17.909-3.051
				c-22.172-4.55-63.441-13.029-125.325-14.362c-90.104-1.784-160.909,63.238-163.827,65.977l-2.088,1.94
				c-3.7,1.789-15.386,6.064-51.105,13.086c-50.663,9.976-60.327,26.116-62.153,32.357c-4.044,3.019-10.594,10.219-11.632,18.691
				c-0.834,6.755-2.723,9.519-2.723,9.511l-0.874,1.127v47.681l0.099,0.87c2.746,12.661,15.869,19.361,37.948,19.361
				c7.042,0,12.324-0.719,12.119-0.719c0.307-0.018,3.03-0.063,7.748-0.16c-0.482-1.334-0.922-2.684-1.301-4.064
				c-0.367-1.332-0.703-2.674-0.962-4.048c-0.623-3.235-0.973-6.563-0.973-9.98c0-29.302,23.839-53.143,53.141-53.143
				c29.302,0,53.143,23.841,53.143,53.143c0,2.65-0.259,5.221-0.631,7.769c-0.204,1.381-0.439,2.753-0.751,4.095
				c-0.319,1.39-0.653,2.763-1.078,4.112c66.359-1.422,150.798-3.299,216.196-4.941c-0.288-1.342-0.472-2.701-0.655-4.074
				c-0.184-1.357-0.288-2.714-0.359-4.086c-0.048-0.959-0.144-1.899-0.144-2.874c0-29.302,23.841-53.143,53.141-53.143
				c28.888,0,52.424,23.186,53.079,51.929c0,0.4,0.063,0.805,0.063,1.214c0,1.03-0.096,2.035-0.16,3.058
				c-0.08,1.452-0.224,2.896-0.415,4.318c12.486-2.06,21.876-8.639,27.313-19.281c9.301-18.195,4.56-42.833,1.222-48.064
				C505.979,266.552,505.086,255.486,504.288,245.726z"/>
			<path fill="#1C2833" d="M66.576,347.254c6.926,15.92,22.771,27.057,41.238,27.057c19.13,0,35.424-11.969,41.923-28.798
				c0.515-1.341,0.975-2.715,1.366-4.12c0.375-1.341,0.686-2.715,0.942-4.104c0.455-2.578,0.741-5.23,0.741-7.943
				c0-24.838-20.127-44.967-44.965-44.967c-24.838,0-44.966,20.129-44.966,44.967c0,3.369,0.399,6.648,1.105,9.812
				c0.299,1.374,0.658,2.724,1.093,4.04C65.498,344.588,66.005,345.928,66.576,347.254z"/>
			<path fill="#1C2833" d="M383.059,340.164c4.854,19.593,22.516,34.146,43.608,34.146c22.052,0,40.36-15.896,44.192-36.838
				c0.246-1.357,0.438-2.724,0.573-4.121c0.12-1.324,0.2-2.65,0.2-4.007c0-0.032,0-0.065,0-0.104
				c-0.048-24.781-20.168-44.863-44.966-44.863c-24.83,0-44.966,20.13-44.966,44.968c0,0.901,0.088,1.779,0.136,2.674
				c0.08,1.382,0.216,2.737,0.423,4.079C382.468,337.474,382.739,338.83,383.059,340.164z"/>
		</g>
	</g>
	<path fill="#FFFFFF" stroke="#000000" d="M159.5,213.5c0,0,44-44,93-55l1,53L159.5,213.5z"/>
	<rect x="258.5" y="158.5" fill="#FFFFFF" stroke="#000000" width="102" height="52"/>
	<circle fill="#FFFFFF" stroke="#000000" cx="107" cy="330" r="25.5"/>
	<circle fill="#FFFFFF" stroke="#000000" cx="426" cy="330" r="25.5"/>
</g>
</svg>
