<?xml version="1.0" encoding="iso-8859-1"?>
<!-- Generator: Adobe Illustrator 16.0.0, SVG Export Plug-In . SVG Version: 6.00 Build 0)  -->
<!DOCTYPE svg PUBLIC "-//W3C//DTD SVG 1.1//EN" "http://www.w3.org/Graphics/SVG/1.1/DTD/svg11.dtd">
<svg xmlns="http://www.w3.org/2000/svg" xmlns:xlink="http://www.w3.org/1999/xlink" version="1.1" id="Capa_1" x="0px" y="0px" width="512px" height="512px" viewBox="0 0 99.428 99.428" style="enable-background:new 0 0 99.428 99.428;" xml:space="preserve">
<g>
	<g>
		<path d="M18.566,55.426c-4.205,0.042-7.582,3.48-7.542,7.687c0.003,0.326,0.033,0.644,0.076,0.958    c0.508,3.75,3.73,6.623,7.611,6.585c3.988-0.036,7.222-3.13,7.516-7.036c0.018-0.214,0.029-0.431,0.027-0.65    C26.215,58.762,22.773,55.387,18.566,55.426z M17.935,58.325l0.021,2.188c-0.238,0.065-0.462,0.162-0.671,0.29l-1.566-1.536    C16.352,58.777,17.105,58.448,17.935,58.325z M14.796,60.208l1.571,1.538c-0.122,0.211-0.213,0.435-0.271,0.673l-2.188,0.021    C14.012,61.609,14.323,60.85,14.796,60.208z M13.911,63.757l2.206-0.021c0.063,0.233,0.158,0.455,0.282,0.658l-1.544,1.571    C14.372,65.336,14.035,64.584,13.911,63.757z M15.807,66.882l1.533-1.562c0.204,0.116,0.43,0.204,0.663,0.262l0.021,2.195    C17.201,67.672,16.444,67.356,15.807,66.882z M23.361,62.352l-2.191,0.021c-0.062-0.239-0.16-0.46-0.282-0.669l1.539-1.567    C22.914,60.768,23.238,61.522,23.361,62.352z M19.252,58.312c0.833,0.106,1.592,0.423,2.233,0.897l-1.535,1.567    c-0.21-0.123-0.436-0.214-0.677-0.274L19.252,58.312z M19.342,67.763l-0.021-2.193c0.234-0.063,0.457-0.153,0.661-0.277    l1.562,1.538C20.914,67.313,20.167,67.645,19.342,67.763z M22.481,65.9l-1.578-1.546c0.119-0.206,0.219-0.428,0.278-0.665    l2.188-0.021C23.262,64.495,22.956,65.26,22.481,65.9z" fill="#1c2833"/>
		<path d="M82.266,55.426c-4.205,0.042-7.582,3.48-7.543,7.687c0.004,0.326,0.033,0.644,0.077,0.958    c0.507,3.75,3.73,6.623,7.611,6.585c3.987-0.036,7.222-3.13,7.517-7.036c0.018-0.214,0.028-0.431,0.026-0.65    C89.915,58.762,86.473,55.387,82.266,55.426z M81.635,58.325l0.021,2.188c-0.239,0.065-0.463,0.162-0.672,0.29l-1.565-1.536    C80.051,58.777,80.805,58.448,81.635,58.325z M78.497,60.208l1.569,1.538c-0.121,0.211-0.211,0.435-0.271,0.673l-2.188,0.021    C77.712,61.609,78.023,60.85,78.497,60.208z M77.611,63.757l2.205-0.021c0.063,0.233,0.158,0.455,0.283,0.658l-1.545,1.571    C78.07,65.336,77.736,64.584,77.611,63.757z M79.506,66.882l1.534-1.562c0.204,0.116,0.431,0.204,0.662,0.262l0.021,2.195    C80.9,67.672,80.145,67.356,79.506,66.882z M87.061,62.352l-2.19,0.021c-0.063-0.239-0.16-0.46-0.282-0.669l1.538-1.567    C86.615,60.768,86.938,61.522,87.061,62.352z M82.954,58.312c0.832,0.106,1.591,0.423,2.231,0.897l-1.535,1.567    c-0.209-0.123-0.436-0.214-0.676-0.274L82.954,58.312z M83.042,67.763l-0.021-2.193c0.233-0.063,0.457-0.153,0.66-0.277    l1.562,1.538C84.615,67.313,83.868,67.645,83.042,67.763z M86.18,65.9l-1.576-1.546c0.117-0.206,0.219-0.428,0.277-0.665    l2.188-0.021C86.961,64.495,86.656,65.26,86.18,65.9z" fill="#1c2833"/>
		<path d="M98.596,58.831l-0.916-0.337c0,0,0.016-21.739-4.748-28.297c-0.81-1.115-36.104-3.309-48.938,1.887    C38.719,34.219,22.578,45.12,22.578,45.12S8.921,47.244,4.651,49.869c-1.898,1.49-3.044,4.562-3.044,4.562l-1.156,1.237    C0.161,55.98,0,56.387,0,56.812v2.068c0,0.535,0.435,0.971,0.97,0.971v3.612c-0.175,0-0.334,0.103-0.407,0.259    c-0.072,0.158-0.067,0.364,0.066,0.479c0.39,0.334,2.285,0.58,3.7,0.745c1.308,0.15,5.533,0.57,5.533,0.57    c-0.113-0.404-0.209-0.815-0.268-1.241c-0.057-0.411-0.086-0.787-0.089-1.146c-0.048-5.034,4.011-9.17,9.046-9.22    c5.079,0,9.177,4.059,9.222,9.048c0.002,0.264-0.011,0.526-0.031,0.784c-0.042,0.557-0.139,1.098-0.276,1.622l45.929-0.552    c-0.035-0.179-0.074-0.354-0.099-0.536c-0.058-0.411-0.087-0.787-0.09-1.146c-0.048-5.034,4.01-9.17,9.045-9.22    c5.08,0,9.177,4.059,9.222,9.048c0.002,0.264-0.011,0.526-0.031,0.784c-0.021,0.281-0.057,0.557-0.103,0.831l5.89-0.499    c1.051-0.089,1.887-0.911,1.992-1.958l0.201-1.961C99.479,59.576,99.141,59.032,98.596,58.831z M51.822,44.438    c-0.081,0.487-0.504,0.844-0.995,0.844H36.199v-1.679c0-1.088-0.761-2.026-1.824-2.253l0.138-1.68c0,0,6.61-5.104,17.776-5.273    c0.299-0.005,0.584,0.124,0.779,0.351s0.281,0.529,0.23,0.823L51.822,44.438z" fill="#1c2833"/>
	</g>
</g>
<g>
</g>
<g>
</g>
<g>
</g>
<g>
</g>
<g>
</g>
<g>
</g>
<g>
</g>
<g>
</g>
<g>
</g>
<g>
</g>
<g>
</g>
<g>
</g>
<g>
</g>
<g>
</g>
<g>
</g>
</svg>
